# xmcd
#
# Track frame offsets:
#	150
#	14485
#	22910
#	32852
#	48892
#	61522
#	73022
#	86650
#	95842
#	105910
#	115282
#	123555
#	136387
#	145367
#
# Disc length: 2164 seconds
#
# Revision: 1
# Processed by: cddbd v1.4PL0 Copyright (c) Steve Scherf et al.
# Submitted via: audiograbber 1.82.02
#
DISCID=bd08720e
DTITLE=Buddy Davis - Creation Gospel
DYEAR=1998
DGENRE=Christian Country
TTITLE0=Billions Of Dead Things
TTITLE1=It's Designed to Do What It Does Do
TTITLE2=I Don't Believe in Evolution
TTITLE3=He makes Dreams Out of Nothing
TTITLE4=Problem Solved
TTITLE5=God's The Author of Creation
TTITLE6=Adam and Eve
TTITLE7=Could Behemoth Be a Dinosaur?
TTITLE8=Creation Week
TTITLE9=The Answer's In Genesis
TTITLE10=Glory to God, Jesus is King
TTITLE11=The Hands That Created the World
TTITLE12=In Six Days
TTITLE13=I Believe
EXTD=
EXTT0=
EXTT1=
EXTT2=
EXTT3=
EXTT4=
EXTT5=
EXTT6=
EXTT7=
EXTT8=
EXTT9=
EXTT10=
EXTT11=
EXTT12=
EXTT13=
PLAYORDER=
